HIERARCHY
ROOT Hips
{
	OFFSET 0.000000 100.481300 0.000000
	CHANNELS 6 Xposition Yposition Zposition Xrotation Yrotation Zrotation
	JOINT Spine
	{
		OFFSET -0.279200 12.230698 -2.892100
		CHANNELS 3 Xrotation Yrotation Zrotation
		JOINT Spine1
		{
			OFFSET -0.325700 14.269203 -3.374200
			CHANNELS 3 Xrotation Yrotation Zrotation
			JOINT Spine2
			{
				OFFSET -0.372300 16.307602 -0.352600
				CHANNELS 3 Xrotation Yrotation Zrotation
				JOINT Neck
				{
					OFFSET -0.418800 17.814194 8.416900
					CHANNELS 3 Xrotation Yrotation Zrotation
					JOINT Head
					{
						OFFSET 0.000000 7.031097 3.806800
						CHANNELS 3 Xrotation Yrotation Zrotation
						JOINT HeadTop_End
						{
							OFFSET 0.000000 24.646606 12.978600
							CHANNELS 3 Xrotation Yrotation Zrotation
							End Site
							{
								OFFSET 0.000000 27.854965 0.000000
							}
						}
					}
				}
				JOINT LeftShoulder
				{
					OFFSET 16.952999 14.495407 -7.737500
					CHANNELS 3 Xrotation Yrotation Zrotation
					JOINT LeftArm
					{
						OFFSET 9.308998 -2.777710 0.208600
						CHANNELS 3 Xrotation Yrotation Zrotation
						JOINT LeftForeArm
						{
							OFFSET 29.972298 0.000000 0.000000
							CHANNELS 3 Xrotation Yrotation Zrotation
							JOINT LeftHand
							{
								OFFSET 26.026505 0.000000 0.000000
								CHANNELS 3 Xrotation Yrotation Zrotation
								JOINT LeftHandThumb1
								{
									OFFSET 12.240501 -7.147949 9.207150
									CHANNELS 3 Xrotation Yrotation Zrotation
									JOINT LeftHandThumb2
									{
										OFFSET 4.138618 -2.389435 2.389433
										CHANNELS 3 Xrotation Yrotation Zrotation
										JOINT LeftHandThumb3
										{
											OFFSET 2.726913 -1.574387 1.574386
											CHANNELS 3 Xrotation Yrotation Zrotation
											JOINT LeftHandThumb4
											{
												OFFSET 3.941010 -2.275345 2.275342
												CHANNELS 3 Xrotation Yrotation Zrotation
												End Site
												{
													OFFSET -0.005798 5.087799 0.009903
												}
											}
										}
									}
								}
								JOINT LeftHandIndex1
								{
									OFFSET 24.424698 -1.985611 5.953459
									CHANNELS 3 Xrotation Yrotation Zrotation
									JOINT LeftHandIndex2
									{
										OFFSET 6.426697 0.000000 0.000000
										CHANNELS 3 Xrotation Yrotation Zrotation
										JOINT LeftHandIndex3
										{
											OFFSET 5.337898 0.000000 0.000000
											CHANNELS 3 Xrotation Yrotation Zrotation
											JOINT LeftHandIndex4
											{
												OFFSET 4.409401 0.000000 0.000000
												CHANNELS 3 Xrotation Yrotation Zrotation
												End Site
												{
													OFFSET 0.000000 4.409363 0.014373
												}
											}
										}
									}
								}
								JOINT LeftHandMiddle1
								{
									OFFSET 23.810104 0.000000 0.000000
									CHANNELS 3 Xrotation Yrotation Zrotation
									JOINT LeftHandMiddle2
									{
										OFFSET 7.176498 0.000000 0.000000
										CHANNELS 3 Xrotation Yrotation Zrotation
										JOINT LeftHandMiddle3
										{
											OFFSET 6.774902 0.000000 0.000000
											CHANNELS 3 Xrotation Yrotation Zrotation
											JOINT LeftHandMiddle4
											{
												OFFSET 5.403328 0.000000 0.000000
												CHANNELS 3 Xrotation Yrotation Zrotation
												End Site
												{
													OFFSET -0.027702 5.403244 0.017414
												}
											}
										}
									}
								}
								JOINT LeftHandRing1
								{
									OFFSET 22.908401 -0.839279 -6.020567
									CHANNELS 3 Xrotation Yrotation Zrotation
									JOINT LeftHandRing2
									{
										OFFSET 6.337502 0.000000 0.000000
										CHANNELS 3 Xrotation Yrotation Zrotation
										JOINT LeftHandRing3
										{
											OFFSET 5.779297 0.000000 0.000000
											CHANNELS 3 Xrotation Yrotation Zrotation
											JOINT LeftHandRing4
											{
												OFFSET 4.965698 0.000000 0.000000
												CHANNELS 3 Xrotation Yrotation Zrotation
												End Site
												{
													OFFSET 0.000000 4.965668 0.016186
												}
											}
										}
									}
								}
								JOINT LeftHandPinky1
								{
									OFFSET 20.037003 -1.530319 -10.950146
									CHANNELS 3 Xrotation Yrotation Zrotation
									JOINT LeftHandPinky2
									{
										OFFSET 5.254700 0.000000 0.000000
										CHANNELS 3 Xrotation Yrotation Zrotation
										JOINT LeftHandPinky3
										{
											OFFSET 4.810204 0.000000 0.000000
											CHANNELS 3 Xrotation Yrotation Zrotation
											JOINT LeftHandPinky4
											{
												OFFSET 3.647202 0.000000 0.000000
												CHANNELS 3 Xrotation Yrotation Zrotation
												End Site
												{
													OFFSET 0.000000 3.647186 0.011889
												}
											}
										}
									}
								}
							}
						}
					}
				}
				JOINT RightShoulder
				{
					OFFSET -15.141001 14.495407 -7.737500
					CHANNELS 3 Xrotation Yrotation Zrotation
					JOINT RightArm
					{
						OFFSET -9.308998 -2.777710 0.208500
						CHANNELS 3 Xrotation Yrotation Zrotation
						JOINT RightForeArm
						{
							OFFSET -29.972300 0.000000 0.000000
							CHANNELS 3 Xrotation Yrotation Zrotation
							JOINT RightHand
							{
								OFFSET -26.026505 0.000000 0.000000
								CHANNELS 3 Xrotation Yrotation Zrotation
								JOINT RightHandThumb1
								{
									OFFSET -12.240601 -7.148026 9.207092
									CHANNELS 3 Xrotation Yrotation Zrotation
									JOINT RightHandThumb2
									{
										OFFSET -4.138618 -2.389435 2.389433
										CHANNELS 3 Xrotation Yrotation Zrotation
										JOINT RightHandThumb3
										{
											OFFSET -2.726974 -1.574417 1.574421
											CHANNELS 3 Xrotation Yrotation Zrotation
											JOINT RightHandThumb4
											{
												OFFSET -3.941010 -2.275345 2.275343
												CHANNELS 3 Xrotation Yrotation Zrotation
												End Site
												{
													OFFSET 0.005814 5.087799 0.009927
												}
											}
										}
									}
								}
								JOINT RightHandIndex1
								{
									OFFSET -24.424698 -1.985657 5.953444
									CHANNELS 3 Xrotation Yrotation Zrotation
									JOINT RightHandIndex2
									{
										OFFSET -6.426697 0.000000 0.000000
										CHANNELS 3 Xrotation Yrotation Zrotation
										JOINT RightHandIndex3
										{
											OFFSET -5.337898 0.000000 0.000000
											CHANNELS 3 Xrotation Yrotation Zrotation
											JOINT RightHandIndex4
											{
												OFFSET -4.409401 0.000000 0.000000
												CHANNELS 3 Xrotation Yrotation Zrotation
												End Site
												{
													OFFSET 0.000000 4.409363 0.014408
												}
											}
										}
									}
								}
								JOINT RightHandMiddle1
								{
									OFFSET -23.810097 0.000000 0.000000
									CHANNELS 3 Xrotation Yrotation Zrotation
									JOINT RightHandMiddle2
									{
										OFFSET -7.176498 0.000000 0.000000
										CHANNELS 3 Xrotation Yrotation Zrotation
										JOINT RightHandMiddle3
										{
											OFFSET -6.774902 0.000000 0.000000
											CHANNELS 3 Xrotation Yrotation Zrotation
											JOINT RightHandMiddle4
											{
												OFFSET -5.403328 0.000000 0.000000
												CHANNELS 3 Xrotation Yrotation Zrotation
												End Site
												{
													OFFSET 0.027702 5.403244 0.017457
												}
											}
										}
									}
								}
								JOINT RightHandRing1
								{
									OFFSET -22.908302 -0.839325 -6.020576
									CHANNELS 3 Xrotation Yrotation Zrotation
									JOINT RightHandRing2
									{
										OFFSET -6.337502 0.000000 0.000000
										CHANNELS 3 Xrotation Yrotation Zrotation
										JOINT RightHandRing3
										{
											OFFSET -5.779297 0.000000 0.000000
											CHANNELS 3 Xrotation Yrotation Zrotation
											JOINT RightHandRing4
											{
												OFFSET -4.965698 0.000000 0.000000
												CHANNELS 3 Xrotation Yrotation Zrotation
												End Site
												{
													OFFSET 0.000000 4.965668 0.016226
												}
											}
										}
									}
								}
								JOINT RightHandPinky1
								{
									OFFSET -20.037003 -1.530334 -10.950259
									CHANNELS 3 Xrotation Yrotation Zrotation
									JOINT RightHandPinky2
									{
										OFFSET -5.254700 0.000000 0.000000
										CHANNELS 3 Xrotation Yrotation Zrotation
										JOINT RightHandPinky3
										{
											OFFSET -4.810204 0.000000 0.000000
											CHANNELS 3 Xrotation Yrotation Zrotation
											JOINT RightHandPinky4
											{
												OFFSET -3.647202 0.000000 0.000000
												CHANNELS 3 Xrotation Yrotation Zrotation
												End Site
												{
													OFFSET 0.000000 3.647186 0.011917
												}
											}
										}
									}
								}
							}
						}
					}
				}
			}
		}
	}
	JOINT LeftUpLeg
	{
		OFFSET 15.427100 -6.655098 0.678600
		CHANNELS 3 Xrotation Yrotation Zrotation
		JOINT LeftLeg
		{
			OFFSET 4.081073 -39.591068 13.024000
			CHANNELS 3 Xrotation Yrotation Zrotation
			JOINT LeftFoot
			{
				OFFSET -4.081074 -37.707932 -15.979700
				CHANNELS 3 Xrotation Yrotation Zrotation
				JOINT LeftToeBase
				{
					OFFSET 5.346399 -15.068900 20.645000
					CHANNELS 3 Xrotation Yrotation Zrotation
					JOINT LeftToe_End
					{
						OFFSET 2.754700 0.931300 11.300900
						CHANNELS 3 Xrotation Yrotation Zrotation
						End Site
						{
							OFFSET 0.000000 11.669021 0.000000
						}
					}
				}
			}
		}
	}
	JOINT RightUpLeg
	{
		OFFSET -15.569500 -6.655098 0.678600
		CHANNELS 3 Xrotation Yrotation Zrotation
		JOINT RightLeg
		{
			OFFSET -4.081825 -39.591045 13.023800
			CHANNELS 3 Xrotation Yrotation Zrotation
			JOINT RightFoot
			{
				OFFSET 4.081824 -37.707954 -15.979600
				CHANNELS 3 Xrotation Yrotation Zrotation
				JOINT RightToeBase
				{
					OFFSET -5.346400 -15.068900 20.645000
					CHANNELS 3 Xrotation Yrotation Zrotation
					JOINT RightToe_End
					{
						OFFSET -2.754700 0.931300 11.300900
						CHANNELS 3 Xrotation Yrotation Zrotation
						End Site
						{
							OFFSET 0.000000 11.669021 0.000000
						}
					}
				}
			}
		}
	}
}
MOTION
Frames: 4
Frame Time: 0.033333
-1.618651 86.677910 0.828536 2.235203 7.510987 3.383985 2.835436 0.218164 0.541365 5.674424 0.406378 0.071914 5.674426 0.406376 0.071914 10.756316 -4.995316 -4.139969 26.762244 1.110110 -6.943829 -0.000002 -0.000000 -0.000000 -0.652941 -5.904418 -8.594320 -1.870581 -7.893223 -67.527601 -1.235792 -114.644807 -1.123643 36.390346 -15.260142 25.010515 -22.836889 -0.156704 2.960006 7.873129 13.737170 -4.164493 -0.000002 0.000001 -0.000008 0.000001 -0.000001 0.000000 -4.641426 -0.648981 -11.932826 0.211564 1.544599 -15.644642 0.000000 -0.000004 0.000003 0.000002 -0.000001 0.000001 -0.704836 2.219839 -16.412579 -0.181134 -0.459252 -14.834321 0.000001 -0.000006 -0.000001 0.000001 0.000000 0.000000 0.991928 5.627170 -23.861531 -0.481053 -0.947438 -22.527123 0.000003 0.000000 0.000003 -0.000000 -0.000001 0.000000 4.470314 8.689032 -24.332569 -0.700848 -3.328293 -19.747508 -0.000006 0.000002 -0.000001 0.000000 0.000001 0.000000 0.109278 5.851506 5.567425 -17.477981 -0.323431 56.435572 -2.042509 135.236024 1.439041 1.530410 1.069120 -11.539932 -28.028091 -8.079666 3.864782 1.118921 -2.183995 -0.151889 -0.000003 -0.000007 0.000005 -0.000001 -0.000002 -0.000001 -5.664454 -4.990971 19.027382 0.288017 -1.525218 25.527426 0.000001 0.000001 0.000004 -0.000001 -0.000000 -0.000001 -0.216612 -3.431881 23.892616 -0.217270 0.899662 17.360164 -0.000001 -0.000003 -0.000001 0.000003 0.000001 0.000002 -0.949425 -5.301195 28.203745 1.080753 0.131470 14.546309 0.000002 0.000000 -0.000002 0.000001 0.000001 0.000002 2.001038 -5.252019 32.048156 -0.283081 1.191889 11.056225 0.000000 0.000003 0.000001 0.000000 0.000002 0.000000 -21.977711 5.647095 7.098289 42.700751 -1.829853 -1.774407 -11.828178 5.996721 -4.296854 -12.682445 -2.864652 -2.857277 0.000000 -0.000001 -0.000000 -25.060820 0.942398 -11.578701 39.415403 1.101620 1.855708 -15.621957 -8.788305 5.015955 -1.041226 -3.935041 2.375048 -0.000000 -0.000000 0.000000 
-1.266665 86.902351 1.557524 1.451275 7.212095 3.498468 2.504153 0.297638 0.771561 5.013033 0.589834 0.410515 5.013033 0.589833 0.410515 11.923265 0.560373 -5.231676 25.304039 5.814378 -5.303194 0.000000 -0.000000 0.000001 -0.502214 -5.159170 -7.420259 4.344352 -7.735495 -69.310396 -1.470143 -104.902929 -1.421027 48.902416 -13.511368 33.841586 -20.444500 -1.276087 3.857536 8.056130 13.635201 -4.706866 0.000001 0.000000 -0.000009 0.000003 -0.000000 0.000001 -4.123439 -1.374842 -10.494394 0.164131 1.510804 -14.977859 0.000003 -0.000003 0.000001 0.000002 -0.000000 -0.000000 -0.736603 2.356586 -14.977927 -0.174854 -0.397842 -13.706277 0.000003 -0.000004 0.000004 -0.000001 0.000001 0.000000 1.133898 6.029479 -22.834028 -0.494354 -0.958416 -22.575665 0.000003 0.000001 -0.000001 0.000001 0.000000 0.000002 4.351145 9.595935 -22.785774 -0.773869 -3.503314 -20.811824 -0.000003 -0.000000 0.000003 -0.000001 0.000000 -0.000001 -0.111328 5.935476 6.496618 -4.289194 -5.881640 56.718751 -1.970505 133.802777 1.422880 8.431717 3.493111 -13.569220 -27.684608 -6.409762 6.137583 1.230271 -2.746202 -0.395801 -0.000003 -0.000007 0.000005 -0.000001 -0.000002 0.000000 -6.725925 -3.740778 19.367126 0.225299 -1.389908 22.439752 -0.000000 0.000000 -0.000001 -0.000002 0.000000 -0.000001 -1.057275 -2.598664 22.868510 -0.188025 0.804943 15.859400 0.000001 0.000000 -0.000001 -0.000001 -0.000001 0.000000 -1.180219 -4.692695 26.382722 0.879660 0.056241 14.283783 -0.000004 0.000003 0.000001 -0.000002 -0.000001 -0.000002 1.785697 -4.755461 30.937181 -0.269828 1.130660 10.584278 -0.000004 -0.000000 0.000005 0.000001 -0.000002 -0.000001 -20.913990 6.628587 7.454102 42.897526 -1.873621 -1.766405 -10.930607 5.646794 -4.758644 -15.233548 -2.827379 -2.605641 -0.000000 -0.000001 0.000000 -23.296817 0.799552 -11.886353 38.903398 1.022532 1.848104 -16.275794 -8.575081 5.449344 -1.020401 -3.715993 2.235814 -0.000000 -0.000000 -0.000000 
-0.889375 87.101875 2.282684 0.709624 6.925272 3.462127 2.131148 0.366086 1.030984 4.267462 0.758422 0.828930 4.267458 0.758419 0.828928 13.264098 6.401549 -6.557260 23.359182 10.380673 -2.868685 -0.000000 -0.000000 0.000002 -0.428138 -4.768754 -6.802530 8.349773 -6.990695 -70.532973 -5.137899 -92.801719 -5.132022 57.132849 -9.144575 42.335322 -18.258825 -2.271875 4.712092 8.222050 13.541187 -5.199210 0.000002 -0.000002 -0.000007 0.000005 0.000001 0.000000 -3.624924 -2.012233 -9.176072 0.121241 1.479337 -14.371956 0.000003 -0.000003 0.000002 0.000001 -0.000001 0.000000 -0.769716 2.478899 -13.673821 -0.170277 -0.342094 -12.681171 0.000000 -0.000006 0.000002 -0.000000 0.000000 0.000000 1.251538 6.398445 -21.899516 -0.506466 -0.968371 -22.619794 0.000001 0.000001 -0.000002 -0.000001 0.000001 -0.000001 4.205942 10.410162 -21.365764 -0.842930 -3.661067 -21.779412 0.000001 -0.000000 0.000003 0.000001 -0.000000 0.000002 -0.277028 5.659668 6.925066 8.100171 -10.570494 58.843685 -1.911491 129.141187 1.483167 14.731501 6.538600 -15.635751 -27.331726 -4.545026 8.564154 1.350985 -3.357570 -0.661281 -0.000003 -0.000006 0.000006 -0.000000 -0.000000 0.000002 -7.891191 -2.394206 19.780358 0.165692 -1.239006 19.080000 0.000004 -0.000001 -0.000001 -0.000000 -0.000001 -0.000001 -1.938267 -1.659664 21.778548 -0.159065 0.701032 14.226317 0.000001 0.000003 -0.000001 0.000001 -0.000001 0.000002 -1.384548 -4.010894 24.408729 0.660119 -0.023471 13.997717 -0.000000 -0.000000 0.000003 0.000003 -0.000001 -0.000003 1.574780 -4.202991 29.733398 -0.256126 1.063873 10.070716 -0.000005 0.000000 0.000006 -0.000002 -0.000001 -0.000004 -19.883941 7.216311 7.789055 43.149221 -1.912986 -1.758373 -10.206010 5.458790 -5.164554 -17.661104 -2.886678 -2.415155 -0.000000 -0.000000 -0.000000 -21.582156 0.577726 -12.132854 38.374643 0.871232 1.787177 -16.829818 -8.307506 6.221104 -0.959084 -3.406985 2.048018 -0.000000 -0.000000 -0.000000 
-0.523564 87.296379 2.964317 0.081247 6.767017 3.287315 1.711113 0.391832 1.262923 3.426898 0.841310 1.218517 3.426899 0.841312 1.218518 14.248012 11.899488 -7.372596 20.855248 14.344499 -0.001296 -0.000002 0.000003 -0.000000 -0.418006 -4.644218 -6.656589 11.303905 -3.382156 -70.232554 2.086840 -81.940933 2.065994 59.756246 -7.437355 44.144903 -16.337751 -3.124754 5.489823 8.366860 13.458031 -5.629302 -0.000000 0.000002 -0.000006 0.000002 0.000001 -0.000001 -3.167731 -2.551476 -8.014351 0.083888 1.451137 -13.842162 0.000005 -0.000003 0.000002 0.000001 -0.000000 0.000000 -0.801932 2.584191 -12.533118 -0.167155 -0.293377 -11.784743 0.000002 -0.000005 0.000003 -0.000001 0.000000 -0.000001 1.345454 6.723502 -21.081603 -0.517056 -0.977083 -22.658374 0.000001 0.000002 -0.000001 0.000002 -0.000000 0.000003 4.050130 11.113357 -20.112143 -0.905447 -3.797958 -22.625842 -0.000002 -0.000001 0.000001 -0.000001 -0.000000 0.000001 -0.432275 5.186556 7.161292 18.067619 -13.682245 61.756419 -2.006437 121.186366 1.717065 19.922345 9.327921 -16.758310 -27.001510 -2.631491 10.941974 1.471253 -3.968464 -0.926765 -0.000002 -0.000005 0.000008 0.000001 0.000000 -0.000002 -9.068419 -1.063339 20.238824 0.115200 -1.084803 15.720599 0.000001 -0.000003 0.000000 0.000002 -0.000001 -0.000004 -2.783700 -0.688497 20.714002 -0.133101 0.596352 12.593317 -0.000001 -0.000001 -0.000004 0.000002 -0.000000 -0.000001 -1.539298 -3.311181 22.442207 0.439929 -0.101000 13.711233 -0.000003 -0.000001 -0.000001 -0.000001 -0.000001 -0.000001 1.388531 -3.638742 28.534804 -0.243144 0.996958 9.557187 -0.000005 0.000001 0.000003 -0.000001 -0.000000 0.000002 -18.964707 7.351624 8.025455 43.386096 -1.936668 -1.742678 -9.674496 5.559475 -5.446986 -19.767479 -3.037183 -2.342921 0.000000 0.000001 0.000000 -20.044800 0.456857 -12.308914 37.839006 0.825708 1.753114 -16.946292 -8.254988 7.401050 -0.996322 -3.146200 1.864168 -0.000000 -0.000001 0.000000 
